<?xml version="1.0" encoding="utf-8"?>
<!-- Generator: Adobe Illustrator 24.3.0, SVG Export Plug-In . SVG Version: 6.00 Build 0)  -->
<svg version="1.1" id="Layer_1" xmlns="http://www.w3.org/2000/svg" xmlns:xlink="http://www.w3.org/1999/xlink" x="0px" y="0px"
	 viewBox="0 0 240.3 102" style="enable-background:new 0 0 240.3 102;" xml:space="preserve">
<style type="text/css">
	.st0{fill:#0A2463;}
	.st1{fill:#FFFFFF;}
</style>
<g>
	<path class="st0" d="M101.2,37.1l-7.8,26.6h-7.2l-4.8-18.6l-4.8,18.6h-7.3l-7.8-26.6h6.8L73,57.4l5-20.3h7.1l5,20.2l4.7-20.2H101.2
		z"/>
	<path class="st0" d="M129.4,52.4H110c0.2,1.9,0.8,3.4,2,4.5c1.2,1.1,2.6,1.6,4.4,1.6c2.5,0,4.3-1.1,5.3-3.2h7.2
		c-0.8,2.6-2.2,4.7-4.4,6.3c-2.2,1.6-4.8,2.5-8,2.5c-2.6,0-4.9-0.6-6.9-1.7c-2-1.1-3.6-2.7-4.8-4.8c-1.1-2.1-1.7-4.5-1.7-7.2
		c0-2.8,0.6-5.2,1.7-7.2c1.1-2.1,2.7-3.7,4.7-4.8c2-1.1,4.3-1.7,7-1.7c2.5,0,4.8,0.5,6.8,1.6c2,1.1,3.6,2.6,4.7,4.6
		c1.1,2,1.7,4.3,1.7,6.9C129.6,50.8,129.5,51.6,129.4,52.4z M122.6,47.9c0-1.7-0.7-3.1-1.9-4.2c-1.2-1-2.7-1.6-4.5-1.6
		c-1.7,0-3.1,0.5-4.2,1.5s-1.8,2.4-2.1,4.2h12.7V47.9z"/>
	<path class="st0" d="M134.4,43.1c1.1-2.1,2.5-3.7,4.4-4.8c1.8-1.1,3.9-1.7,6.2-1.7c2,0,3.7,0.4,5.2,1.2s2.7,1.8,3.6,3V37h6.8v26.6
		h-6.8v-3.9c-0.9,1.2-2.1,2.3-3.6,3.1s-3.3,1.2-5.3,1.2c-2.2,0-4.3-0.6-6.1-1.7c-1.8-1.2-3.3-2.8-4.4-4.9c-1.1-2.1-1.6-4.5-1.6-7.2
		C132.8,47.6,133.3,45.2,134.4,43.1z M152.7,46.2c-0.6-1.2-1.5-2.1-2.6-2.7s-2.3-0.9-3.5-0.9s-2.4,0.3-3.5,0.9s-1.9,1.5-2.6,2.7
		c-0.7,1.2-1,2.6-1,4.2s0.3,3,1,4.2s1.5,2.1,2.6,2.8c1.1,0.6,2.2,1,3.4,1s2.4-0.3,3.5-0.9c1.1-0.6,2-1.5,2.6-2.7
		c0.6-1.2,1-2.6,1-4.2S153.4,47.4,152.7,46.2z"/>
	<path class="st0" d="M178.1,57.5l6.7-20.4h7.2l-9.8,26.6H174l-9.8-26.6h7.2L178.1,57.5z"/>
	<path class="st0" d="M220.3,52.4h-19.4c0.2,1.9,0.8,3.4,2,4.5c1.2,1.1,2.6,1.6,4.4,1.6c2.5,0,4.3-1.1,5.3-3.2h7.2
		c-0.8,2.6-2.2,4.7-4.4,6.3s-4.8,2.5-8,2.5c-2.6,0-4.9-0.6-6.9-1.7c-2-1.1-3.6-2.7-4.8-4.8c-1.1-2.1-1.7-4.5-1.7-7.2
		c0-2.8,0.6-5.2,1.7-7.2c1.1-2.1,2.7-3.7,4.7-4.8c2-1.1,4.3-1.7,7-1.7c2.5,0,4.8,0.5,6.8,1.6c2,1.1,3.6,2.6,4.7,4.6
		c1.1,2,1.7,4.3,1.7,6.9C220.5,50.8,220.4,51.6,220.3,52.4z M213.5,47.9c0-1.7-0.7-3.1-1.9-4.2c-1.2-1-2.7-1.6-4.5-1.6
		c-1.7,0-3.1,0.5-4.2,1.5c-1.1,1-1.8,2.4-2.1,4.2h12.7V47.9z"/>
	<path class="st0" d="M235.5,37.9c1.4-0.8,3-1.2,4.8-1.2v7.1h-1.8c-2.1,0-3.7,0.5-4.8,1.5s-1.6,2.7-1.6,5.2v13.2h-6.7V37.1h6.7v4.1
		C233,39.8,234.1,38.7,235.5,37.9z"/>
</g>
<g>
	<circle class="st0" cx="23.5" cy="49.5" r="23.5"/>
	<g>
		<path class="st1" d="M15.8,40.9c0.4-0.1,0.5,0,0.7,0.3c0.4,0.5,0.6,1.1,0.8,1.7c0.3,0.9,1,1.5,1.9,1.8c1.3,0.4,2.4,1.2,3.2,2.3
			c0.1,0.1,0.1,0.2,0,0.3c-0.7,0.7-1.4,1.4-2.1,2.1c-0.1-0.3-0.3-0.6-0.5-0.8c-0.4-0.5-0.9-0.8-1.5-1c-1.9-0.7-3.2-2-3.9-3.9
			c0-0.2-0.1-0.3-0.2-0.4c-0.1-0.2-0.2-0.4-0.1-0.6C14.6,42,15.2,41.4,15.8,40.9z"/>
		<path class="st1" d="M18.9,63.3c-0.1-0.3,0-0.5,0.2-0.7c2-1.9,3.9-3.9,5.8-5.8c0.1-0.1,0.2-0.1,0.3,0c0.4,0.8,0.9,1.5,1.5,2.1
			c0.1,0.1,0.1,0.2,0,0.3c-1.9,1.8-3.7,3.7-5.5,5.5C21,65,20.8,65,20.5,65C20,64.4,19.5,63.9,18.9,63.3z"/>
		<path class="st1" d="M8.8,53.2c-0.1-0.3,0-0.5,0.2-0.7c1.8-1.8,3.6-3.6,5.4-5.4c0.1-0.1,0.2-0.2,0.4,0c0.6,0.6,1.3,1.1,2.1,1.5
			c0.2,0.1,0.2,0.1,0,0.2c-2,2-3.9,3.9-5.9,5.9c-0.2,0.2-0.4,0.3-0.7,0.2C9.9,54.3,9.4,53.8,8.8,53.2z"/>
		<path class="st1" d="M20.8,35.9c0.4-0.1,0.5,0,0.7,0.3c0.2,0.4,0.4,0.7,0.6,1.1c0,0.1,0,0.1,0,0.2c-0.7,0.7-1.5,1.5-2.2,2.2
			c-0.2-0.2-0.3-0.5-0.4-0.8c-0.1-0.3-0.2-0.6-0.4-0.9C19,37.8,19,37.7,19,37.5C19.6,37,20.2,36.4,20.8,35.9z"/>
		<path class="st1" d="M10.9,45.7c0.4-0.1,0.5,0,0.7,0.3s0.4,0.7,0.6,1.1c0,0.1,0.1,0.2,0,0.2c-0.7,0.7-1.5,1.5-2.2,2.2
			c-0.2-0.3-0.3-0.7-0.4-1c-0.1-0.2-0.1-0.4-0.2-0.5c-0.1-0.2-0.2-0.4-0.1-0.6C9.8,46.8,10.4,46.3,10.9,45.7z"/>
		<path class="st1" d="M13.9,58.3c-0.1-0.3,0-0.5,0.2-0.7c0.3-0.2,0.5-0.5,0.8-0.8c0.1-0.1,0.2-0.1,0.3,0c0.4,0.5,0.8,1,1.3,1.4
			c0.2,0.2,0.4,0.3,0.6,0.5c0.1,0.1,0.1,0.1,0,0.2c-0.3,0.3-0.6,0.6-0.9,0.9C16,60,15.8,60,15.6,59.9C15,59.4,14.4,58.8,13.9,58.3z"
			/>
		<path class="st1" d="M24.4,53.5c0.7-0.7,1.4-1.4,2.1-2.1c0.1-0.1,0.1-0.1,0.3,0c1.1,0.8,1.9,1.8,2.3,3.1c0.3,1,0.9,1.6,1.9,2
			c0.6,0.2,1.2,0.5,1.7,0.8c0.3,0.2,0.3,0.5,0.1,0.8c-0.5,0.5-1,1-1.5,1.5c-0.1,0.1-0.3,0.2-0.5,0.1c-0.5-0.3-1-0.4-1.5-0.6
			c-1.6-0.8-2.6-2-3.2-3.7C25.8,54.6,25.3,54,24.4,53.5C24.5,53.6,24.5,53.5,24.4,53.5z"/>
		<path class="st1" d="M22.2,39.4c1-1,2.1-2.1,3.1-3.1c0.3-0.3,0.6-0.3,0.9,0c0.4,0.4,0.8,0.8,1.3,1.3c0.3,0.3,0.3,0.6,0,0.9
			c-1.9,1.9-3.8,3.8-5.7,5.7c-0.1,0.1-0.2,0.1-0.3,0c-0.6-0.4-1.2-0.7-1.9-0.8c-0.3-0.1-0.5-0.3-0.6-0.5c-0.1-0.1,0-0.2,0.1-0.2
			C20,41.5,21.1,40.5,22.2,39.4z"/>
		<path class="st1" d="M34.3,51.6c-1.1,1.1-2.1,2.1-3.2,3.2c-0.1,0.1-0.2,0.1-0.3,0c-0.2-0.2-0.4-0.4-0.4-0.7
			c-0.2-0.6-0.4-1.2-0.8-1.8c-0.1-0.1-0.1-0.2,0-0.3c1.9-1.9,3.8-3.8,5.7-5.7c0.3-0.3,0.5-0.3,0.8,0c0.4,0.4,0.9,0.9,1.3,1.3
			c0.3,0.3,0.3,0.5,0,0.8C36.4,49.5,35.4,50.6,34.3,51.6z"/>
		<path class="st1" d="M31.6,48.1c-0.3,0.3-0.6,0.6-0.9,0.9c-0.1,0.1-0.2,0.2-0.4,0c-0.3-0.3-0.7-0.5-1.1-0.6
			c-1.9-0.6-3.2-1.9-3.8-3.8c-0.2-0.5-0.3-0.9-0.7-1.2c-0.1-0.1-0.1-0.1,0-0.2c0.6-0.6,1.3-1.3,1.9-1.9c0.1-0.1,0.1-0.1,0.2,0
			c0.6,0.7,1.1,1.4,1.4,2.3c0.3,1,1,1.7,2,2c0.9,0.3,1.7,0.7,2.4,1.4c0.1,0.1,0.1,0.2,0,0.3C32.2,47.5,31.9,47.8,31.6,48.1z"/>
		<path class="st1" d="M21.7,58c-0.3,0.3-0.6,0.6-0.9,0.9c-0.1,0.1-0.2,0.1-0.2,0c-0.3-0.3-0.8-0.5-1.2-0.7
			c-1.9-0.7-3.2-1.9-3.8-3.8c-0.1-0.4-0.3-0.8-0.6-1.2c-0.1-0.1-0.1-0.2,0-0.3c0.6-0.6,1.3-1.3,1.9-1.9c0.1-0.1,0.1-0.1,0.2,0
			c0.6,0.7,1.1,1.4,1.4,2.3c0.3,1.1,1,1.8,2.1,2.1c0.9,0.3,1.6,0.7,2.3,1.3c0.1,0.1,0.1,0.2,0,0.3C22.3,57.4,22,57.7,21.7,58z"/>
		<path class="st1" d="M22.1,49.5c0.8-0.8,1.7-1.7,2.5-2.5c0.1-0.1,0.2-0.2,0.3,0c0.5,0.7,1.1,1.3,1.8,1.8c0.1,0.1,0.1,0.2,0,0.3
			c-1.7,1.7-3.5,3.4-5.2,5.2c-0.1,0.1-0.2,0.1-0.3,0.1c-0.2-0.1-0.4-0.2-0.6-0.2c-0.5-0.2-0.9-0.5-1-1c-0.1-0.2-0.1-0.4-0.2-0.6
			c-0.1-0.1,0-0.2,0.1-0.3C20.4,51.3,21.3,50.4,22.1,49.5z"/>
		<path class="st1" d="M32,43.9c-0.2,0.2-0.3,0.5-0.6,0.5c-0.2,0.1-0.5-0.1-0.7-0.2c-0.6-0.2-1-0.5-1.1-1.2c0-0.1-0.1-0.3-0.1-0.4
			c-0.1-0.2-0.1-0.4,0.1-0.5c0.3-0.3,0.6-0.6,0.9-0.8c0.3-0.3,0.5-0.3,0.8,0c0.4,0.4,0.9,0.9,1.3,1.3c0.3,0.3,0.3,0.5,0,0.8
			C32.3,43.6,32.1,43.8,32,43.9L32,43.9z"/>
		<path class="st1" d="M34.1,53.9c0.7-0.7,1.5-1.5,2.2-2.2c0.1-0.1,0.1-0.1,0.2,0c0.4,0.2,0.8,0.4,1.2,0.7c0.3,0.2,0.3,0.5,0.1,0.7
			c-0.5,0.5-1,1-1.4,1.5c-0.1,0.1-0.3,0.2-0.5,0.1c-0.5-0.3-1-0.4-1.5-0.6C34.2,54,34.1,54,34.1,53.9z"/>
		<path class="st1" d="M25.4,62.6c0.3-0.3,0.7-0.7,1-1c0.1-0.1,0.2-0.1,0.3-0.1c0.4,0.2,0.8,0.4,1.2,0.7c0.3,0.2,0.3,0.5,0.1,0.7
			c-0.5,0.5-1,1-1.5,1.5c-0.1,0.1-0.3,0.2-0.5,0.1c-0.5-0.3-1.1-0.4-1.6-0.6c-0.1-0.1-0.2-0.1,0-0.3C24.7,63.3,25,62.9,25.4,62.6z"
			/>
	</g>
</g>
</svg>
