<svg width="431" height="431" viewBox="0 0 431 431" fill="none" xmlns="http://www.w3.org/2000/svg">
<rect width="431" height="431" fill="white"/>
<rect x="133" y="132" width="166" height="166" fill="#F8DF05"/>
<path d="M248.158 161.825H162.825V247.158H248.158V161.825Z" fill="#F8DF05"/>
<path d="M248.158 161.825V247.158H162.825L183.836 268.175H269.175V182.836L248.158 161.825Z" fill="#1A1C1C"/>
<g clip-path="url(#clip0_1_2)">
<path d="M191.934 219.004C189.781 219.097 187.72 219.671 185.535 219.617C184.556 219.593 183.516 219.42 182.582 219.123C182.05 218.954 181.538 218.611 180.982 218.54C180.369 218.461 179.753 218.741 179.137 218.756C178.151 218.78 177.27 218.518 176.307 218.389C176.556 219.788 177.757 220.915 178.891 221.667C181.781 223.585 185.657 223.622 188.98 223.29C189.763 223.211 190.545 223.114 191.318 222.966C191.712 222.89 192.258 222.692 192.656 222.805C193.129 222.938 193.236 223.652 193.387 224.049C193.828 225.215 194.286 226.367 194.823 227.494C196.364 230.723 199.136 234.592 203.008 234.979C206.648 235.343 209.493 233.233 211.457 230.324C214.496 225.825 215.9 220.479 216.836 215.189C216.98 214.38 217.073 213.546 217.164 212.729C217.211 212.314 217.205 211.758 217.408 211.386C217.658 210.926 218.227 210.619 218.635 210.313C219.47 209.686 220.293 209.036 221.096 208.368C221.555 207.986 222.011 207.595 222.449 207.188C222.685 206.97 222.967 206.618 223.306 206.566C223.681 206.51 223.955 206.946 224.162 207.192C224.76 207.901 225.33 208.639 225.852 209.406C226.8 210.798 227.606 212.221 228.106 213.836C228.314 214.507 228.206 215.296 228.461 215.928C228.803 216.773 229.627 217.43 230.045 218.266C230.341 218.858 230.435 219.577 230.816 220.111C233.607 215.972 231.694 211.095 229.173 207.314C228.605 206.462 227.975 205.641 227.32 204.854C227.035 204.511 226.51 204.071 226.407 203.623C226.302 203.169 226.856 202.703 227.115 202.393C227.871 201.486 228.61 200.553 229.254 199.563C231.108 196.716 232.536 193.547 232.149 190.088C231.776 186.763 228.896 184.78 225.895 184.013C220.599 182.659 214.574 184.165 209.529 185.863C208.28 186.284 207.06 186.769 205.838 187.258C205.301 187.473 204.694 187.848 204.115 187.908C203.364 187.986 202.456 187.362 201.777 187.086C200.113 186.408 198.363 185.695 196.609 185.289C197.497 183.39 198.079 181.428 199.201 179.629C199.748 178.753 200.408 177.886 201.163 177.179C201.557 176.81 202.1 176.548 202.446 176.137C202.895 175.604 203.073 174.711 203.415 174.092C203.844 173.317 204.474 172.716 204.977 172C203.937 172 202.908 171.944 201.9 172.251C198.586 173.263 196.362 176.424 194.883 179.383C194.345 180.459 193.901 181.58 193.481 182.705C193.329 183.111 193.208 183.817 192.855 184.096C192.501 184.376 191.836 184.135 191.441 184.059C190.223 183.823 188.983 183.705 187.75 183.587C184.799 183.306 181.258 183.717 178.768 185.416C178.151 185.836 177.63 186.3 177.17 186.889C173.489 191.601 177.331 198.031 180.422 201.9C181.1 202.749 181.819 203.589 182.583 204.361C183.581 205.372 184.592 206.356 185.658 207.295C186.66 208.178 187.681 209.026 188.734 209.846C189.29 210.279 190.069 210.705 190.475 211.289C190.877 211.869 190.778 212.907 190.879 213.59C191.143 215.376 191.352 217.289 191.934 219.004Z" fill="#1A1C1C"/>
<path d="M209.037 173.903C206.06 174.465 205.011 178.266 206.906 180.469C207.851 181.568 209.369 181.953 210.76 181.689C213.365 181.194 214.692 178.11 213.402 175.815C212.526 174.257 210.754 173.579 209.037 173.903Z" fill="#1A1C1C"/>
<path d="M190.211 206.084C190.211 200.041 190.41 193.884 191.934 187.996C189.166 187.776 186.613 187.102 183.812 187.576C182.613 187.779 181.391 188.12 180.496 188.992C178.893 190.553 179.63 193.121 180.463 194.887C182.08 198.311 184.717 201.25 187.504 203.767C188.383 204.561 189.231 205.414 190.211 206.084ZM208.668 190.334C210.296 191.408 212.055 192.307 213.713 193.339C215.589 194.508 217.385 195.815 219.127 197.172C220.137 197.96 221.112 198.777 222.08 199.615C222.415 199.904 222.841 200.476 223.306 200.539C223.637 200.585 223.867 200.271 224.059 200.052C224.54 199.504 224.984 198.919 225.417 198.332C226.579 196.753 227.584 195.053 228.144 193.164C228.43 192.197 228.565 190.923 228.173 189.965C227.429 188.144 225.15 187.715 223.434 187.471C219.803 186.953 215.68 187.903 212.236 189.021C211.114 189.386 209.619 189.622 208.668 190.334ZM195.625 188.98C194.665 191.815 194.468 195.121 194.26 198.086C193.921 202.925 193.955 207.789 194.625 212.605C194.873 214.389 195.046 216.309 195.625 218.02C202.6 215.75 209.094 212.435 215.066 208.176C216.51 207.146 217.94 206.049 219.25 204.854C219.599 204.535 220.455 204.033 220.455 203.5C220.455 202.967 219.599 202.465 219.25 202.146C217.94 200.951 216.51 199.854 215.066 198.824C209.094 194.565 202.6 191.25 195.625 188.98Z" fill="#F8DF05"/>
<path d="M202.762 197.282C197.393 198.231 195.931 205.398 200.178 208.605C200.792 209.068 201.526 209.415 202.27 209.606C203.179 209.84 204.294 209.885 205.223 209.718C206.009 209.577 206.769 209.261 207.438 208.828C211.914 205.93 210.855 198.849 205.715 197.4C204.815 197.147 203.684 197.119 202.762 197.282ZM178.398 207.245C177.734 207.332 177.12 207.507 176.553 207.874C174.363 209.292 174.232 212.625 176.184 214.302C177.055 215.05 178.262 215.303 179.383 215.167C183.574 214.658 183.862 208.251 179.752 207.35C179.305 207.252 178.854 207.185 178.398 207.245Z" fill="#1A1C1C"/>
<path d="M212.975 214.082C211.71 215.001 210.286 215.714 208.914 216.458C204.977 218.593 200.868 220.325 196.609 221.711C197.477 224.276 198.561 226.848 200.277 228.971C201.023 229.894 202.143 230.971 203.377 231.159C205.277 231.449 206.792 230.122 207.877 228.725C210.134 225.817 211.409 222.058 212.251 218.512C212.483 217.531 212.686 216.548 212.876 215.559C212.967 215.084 213.14 214.543 212.975 214.082Z" fill="#F8DF05"/>
<path d="M222.326 217.591C219.533 218.187 218.396 221.692 220.063 223.926C221.038 225.232 222.745 225.693 224.295 225.339C226.688 224.792 227.953 221.92 226.88 219.742C226.042 218.043 224.17 217.198 222.326 217.591Z" fill="#1A1C1C"/>
</g>
<defs>
<clipPath id="clip0_1_2">
<rect width="63" height="63" fill="white" transform="translate(172 172)"/>
</clipPath>
</defs>
</svg>
